<svg width="32" height="32" viewBox="0 0 32 32" fill="none" xmlns="http://www.w3.org/2000/svg">
    <circle cx="16" cy="16" r="16" fill="white"/>
    <path d="M6.17 14.857C6.43133 14.633 6.71367 14.4533 7.017 14.318C7.325 14.178 7.69133 14.108 8.116 14.108C8.51267 14.108 8.86267 14.178 9.166 14.318C9.474 14.4533 9.733 14.6447 9.943 14.892C10.153 15.1347 10.3117 15.4263 10.419 15.767C10.5263 16.103 10.58 16.4693 10.58 16.866V21.479H8.41V16.866C8.41 16.5113 8.32833 16.236 8.165 16.04C8.00167 15.8393 7.76133 15.739 7.444 15.739C7.206 15.739 6.982 15.7903 6.772 15.893C6.56667 15.991 6.366 16.1263 6.17 16.299V21.479H4V11H6.17V14.857Z" fill="black"/>
    <path d="M17.0384 15.942C16.973 16.0213 16.91 16.0843 16.8494 16.131C16.7887 16.1777 16.7024 16.201 16.5904 16.201C16.483 16.201 16.385 16.1753 16.2964 16.124C16.2124 16.0727 16.1167 16.0167 16.0094 15.956C15.902 15.8907 15.776 15.8323 15.6314 15.781C15.4867 15.7297 15.307 15.704 15.0924 15.704C14.8264 15.704 14.5954 15.753 14.3994 15.851C14.208 15.949 14.0494 16.089 13.9234 16.271C13.7974 16.453 13.704 16.677 13.6434 16.943C13.5827 17.2043 13.5524 17.5007 13.5524 17.832C13.5524 18.5273 13.6854 19.0617 13.9514 19.435C14.222 19.8083 14.593 19.995 15.0644 19.995C15.3164 19.995 15.5147 19.9647 15.6594 19.904C15.8087 19.8387 15.9347 19.7687 16.0374 19.694C16.14 19.6147 16.2334 19.5423 16.3174 19.477C16.406 19.4117 16.5157 19.379 16.6464 19.379C16.819 19.379 16.9497 19.442 17.0384 19.568L17.6684 20.345C17.4444 20.6017 17.2087 20.8117 16.9614 20.975C16.714 21.1337 16.4597 21.2597 16.1984 21.353C15.9417 21.4417 15.6827 21.5023 15.4214 21.535C15.16 21.5723 14.9057 21.591 14.6584 21.591C14.215 21.591 13.7904 21.507 13.3844 21.339C12.983 21.171 12.6284 20.9283 12.3204 20.611C12.017 20.289 11.7744 19.8947 11.5924 19.428C11.415 18.9613 11.3264 18.4293 11.3264 17.832C11.3264 17.3093 11.4034 16.8217 11.5574 16.369C11.716 15.9117 11.947 15.5173 12.2504 15.186C12.5584 14.85 12.9364 14.5863 13.3844 14.395C13.837 14.2037 14.3597 14.108 14.9524 14.108C15.5217 14.108 16.021 14.199 16.4504 14.381C16.8797 14.563 17.267 14.829 17.6124 15.179L17.0384 15.942Z" fill="black"/>
    <path d="M20.403 11V16.873H20.725C20.8603 16.873 20.963 16.8543 21.033 16.817C21.103 16.775 21.173 16.7073 21.243 16.614L22.615 14.57C22.699 14.4533 22.7946 14.367 22.902 14.311C23.0093 14.2503 23.147 14.22 23.315 14.22H25.303L23.427 16.803C23.2496 17.0363 23.0396 17.2277 22.797 17.377C22.9043 17.4563 23.0023 17.5497 23.091 17.657C23.1796 17.7597 23.2636 17.8763 23.343 18.007L25.387 21.479H23.427C23.2636 21.479 23.1236 21.4533 23.007 21.402C22.8903 21.346 22.7923 21.2503 22.713 21.115L21.341 18.546C21.2756 18.4293 21.208 18.3547 21.138 18.322C21.068 18.2847 20.963 18.266 20.823 18.266H20.403V21.479H18.233V11H20.403Z" fill="black"/>
    <path d="M25.4793 20.38C25.4793 20.212 25.5096 20.0557 25.5703 19.911C25.6356 19.7663 25.7219 19.6403 25.8293 19.533C25.9413 19.4257 26.0719 19.3417 26.2213 19.281C26.3706 19.2157 26.5339 19.183 26.7113 19.183C26.8839 19.183 27.0449 19.2157 27.1943 19.281C27.3436 19.3417 27.4743 19.4257 27.5863 19.533C27.6983 19.6403 27.7846 19.7663 27.8453 19.911C27.9106 20.0557 27.9433 20.212 27.9433 20.38C27.9433 20.548 27.9106 20.7067 27.8453 20.856C27.7846 21.0007 27.6983 21.1267 27.5863 21.234C27.4743 21.3413 27.3436 21.4253 27.1943 21.486C27.0449 21.5467 26.8839 21.577 26.7113 21.577C26.5339 21.577 26.3706 21.5467 26.2213 21.486C26.0719 21.4253 25.9413 21.3413 25.8293 21.234C25.7219 21.1267 25.6356 21.0007 25.5703 20.856C25.5096 20.7067 25.4793 20.548 25.4793 20.38Z" fill="black"/>
</svg>
